<?xml version="1.0" encoding="UTF-8"?>
<svg id="Layer_2" data-name="Layer 2" xmlns="http://www.w3.org/2000/svg" viewBox="0 0 1513.37 371.17">
  <defs>
    <style>
      .cls-1 {
        fill: #fff;
      }
    </style>
  </defs>
  <g id="Layer_2-2" data-name="Layer 2">
    <g id="Layer_1-2" data-name="Layer 1-2">
      <g>
        <polygon class="cls-1" points="0 26.3 0 367.47 30.81 367.47 30.81 8.58 0 26.3"/>
        <path class="cls-1" d="M1197.74,367.47h32.51L1098.29,8.99h-37.44l-132.48,358.48h32.51l32.24-87.73h121.14l42.4-24.29,8.79,24.29h.06l32.24,87.73h-.01Zm-195.79-112.2l77.36-211.9,77.36,211.9h-154.72Z"/>
        <path class="cls-1" d="M475.81,367.47V8.99h-34.54l-134.11,300.36-6.68,25.95c-.79,1.81-3.31,1.81-4.1,0l-7.8-27.19L155.03,8.99h-34.01V367.47h30.81V65.94l135.11,301.53h22.94L445,64.83V367.47h30.81Z"/>
        <path class="cls-1" d="M1397.55,371.17c24.38,0,45.59-4.68,63.03-13.91,17.37-9.2,30.65-21.43,39.48-36.36,8.83-14.95,13.31-30.96,13.31-47.58,0-21.74-4.94-39.25-14.69-52.03-9.86-12.9-22.07-22.63-36.31-28.9-14.61-6.43-34.03-13.05-57.72-19.67-20.77-5.63-37.52-11-49.75-15.97-12.56-5.09-23.19-12.67-31.58-22.53-8.55-10.04-12.89-23.34-12.89-39.53,0-21.32,7.86-38.41,23.36-50.78,15.29-12.2,34.61-18.38,57.42-18.38,24.59,0,44.46,6.2,59.07,18.43,13.58,11.38,22.06,24.48,25.26,38.98l29.83-16.87c-1.7-4.82-3.77-9.43-6.21-13.8-5.81-10.39-13.88-19.75-24-27.83C1454.85,8.23,1427.67,0,1394.38,0c-22.69,0-43.05,4.17-60.52,12.39-17.37,8.18-30.99,19.63-40.49,34.05-9.48,14.39-14.29,30.98-14.29,49.3,0,22.11,4.94,39.79,14.69,52.56,9.84,12.91,21.88,22.54,35.78,28.64,14.27,6.27,33.86,12.79,58.23,19.4,21.16,5.65,37.99,10.93,50.01,15.7,12.4,4.93,22.95,12.52,31.36,22.56,8.54,10.23,12.88,23.79,12.88,40.3,0,20.56-7.73,37.79-22.98,51.21-15.13,13.31-35.82,20.06-61.5,20.06-27.84,0-49.37-7.14-63.98-21.21-13.84-13.32-22.04-28.93-24.39-46.44h-.36l-29.97,16.94c2.69,10.3,7.17,19.98,13.42,28.93,10.2,14.62,24.45,26.18,42.35,34.37h0c18.01,8.23,39.18,12.4,62.93,12.4h0Z"/>
        <path class="cls-1" d="M831.02,28.82c-14.37-9.55-30.41-16.82-47.67-21.6-17.31-4.79-36.35-7.22-56.58-7.22-33.11,0-63.52,7.95-90.4,23.63-26.87,15.68-48.35,37.86-63.86,65.94-15.53,28.13-23.4,60.43-23.4,96.02s7.87,67.8,23.39,95.74c15.51,27.92,37,50.02,63.86,65.68,26.86,15.68,57.28,23.63,90.4,23.63,20.06,0,38.99-2.41,56.26-7.16,17.23-4.74,33.29-11.94,47.75-21.41,14.45-9.45,27.09-21.01,37.58-34.34,6.11-7.76,11.58-16.25,16.39-25.39l-29.13-16.47c-10.79,24.23-27.16,43.52-48.69,57.34-22.06,14.18-49.03,21.36-80.16,21.36-27.56,0-52.72-6.54-74.76-19.45-22.08-12.93-39.64-31.66-52.18-55.68-12.51-23.93-18.85-52.15-18.85-83.88s6.34-60.03,18.85-84.14c12.54-24.2,30.1-43.02,52.18-55.94,22.05-12.91,47.2-19.45,74.76-19.45,31.11,0,58.08,7.28,80.17,21.64,21.54,14.01,37.92,33.58,48.71,58.16h.17l29.07-16.44c-4.83-9.34-10.34-18.02-16.49-25.94-10.45-13.46-23.03-25.12-37.38-34.66v.03Z"/>
      </g>
    </g>
  </g>
</svg>