<?xml version="1.0" encoding="utf-8"?>
<!-- Generator: Adobe Illustrator 27.0.0, SVG Export Plug-In . SVG Version: 6.00 Build 0)  -->
<svg version="1.1" id="Layer_2_00000142866546821819766650000003172066095985073843_"
	 xmlns="http://www.w3.org/2000/svg" xmlns:xlink="http://www.w3.org/1999/xlink" x="0px" y="0px" viewBox="0 0 65 15.9"
	 style="enable-background:new 0 0 65 15.9;" xml:space="preserve">
<style type="text/css">
	.st0{fill:#001148;}
</style>
<g id="Layer_2-2_00000179615384881224418240000014670635677409384858_">
	<g id="Layer_2-2">
		<g id="Layer_1-2">
			<g>
				<polygon class="st0" points="0,1.1 0,15.8 1.3,15.8 1.3,0.4 				"/>
				<path class="st0" d="M51.4,15.8h1.4L47.2,0.4h-1.6l-5.7,15.4h1.4l1.4-3.8h5.2l1.8-1l0.4,1l0,0L51.4,15.8L51.4,15.8L51.4,15.8z
					 M43,11l3.3-9.1l3.3,9.1H43L43,11z"/>
				<path class="st0" d="M20.4,15.8V0.4H19l-5.8,12.9l-0.3,1.1c0,0.1-0.1,0.1-0.2,0l-0.3-1.2L6.7,0.4H5.2v15.4h1.3v-13l5.8,13h1
					l5.8-13v13L20.4,15.8L20.4,15.8z"/>
				<path class="st0" d="M60,15.9c1,0,2-0.2,2.7-0.6c0.7-0.4,1.3-0.9,1.7-1.6c0.4-0.6,0.6-1.3,0.6-2c0-0.9-0.2-1.7-0.6-2.2
					c-0.4-0.6-1-1-1.6-1.2c-0.6-0.3-1.5-0.6-2.5-0.8c-0.9-0.2-1.6-0.5-2.1-0.7s-1-0.5-1.4-1c-0.4-0.4-0.6-1-0.6-1.7
					c0-0.9,0.3-1.7,1-2.2s1.5-0.8,2.5-0.8c1.1,0,1.9,0.3,2.5,0.8s0.9,1,1.1,1.7l1.3-0.7c-0.1-0.2-0.2-0.4-0.3-0.6
					c-0.2-0.4-0.6-0.9-1-1.2c-0.9-0.7-2-1-3.5-1c-1,0-1.8,0.2-2.6,0.5C56.5,0.9,56,1.4,55.6,2S55,3.3,55,4.1c0,0.9,0.2,1.7,0.6,2.3
					c0.4,0.6,0.9,1,1.5,1.2c0.6,0.3,1.5,0.6,2.5,0.8c0.9,0.2,1.6,0.5,2.2,0.7c0.5,0.2,1,0.5,1.3,1c0.4,0.4,0.6,1,0.6,1.7
					c0,0.9-0.3,1.6-1,2.2c-0.7,0.6-1.5,0.9-2.6,0.9c-1.2,0-2.1-0.3-2.8-0.9c-0.6-0.6-0.9-1.2-1-2l0,0L55,12.7
					c0.1,0.4,0.3,0.9,0.6,1.2c0.4,0.6,1,1.1,1.8,1.5l0,0C58.1,15.8,59,15.9,60,15.9L60,15.9z"/>
				<path class="st0" d="M35.7,1.2c-0.6-0.4-1.3-0.7-2-0.9C32.9,0.1,32.1,0,31.2,0c-1.4,0-2.7,0.3-3.9,1s-2.1,1.6-2.7,2.8
					c-0.7,1.2-1,2.6-1,4.1s0.3,2.9,1,4.1s1.6,2.1,2.7,2.8c1.2,0.7,2.5,1,3.9,1c0.9,0,1.7-0.1,2.4-0.3s1.4-0.5,2-0.9s1.2-0.9,1.6-1.5
					c0.3-0.3,0.5-0.7,0.7-1.1l-1.2-0.7c-0.5,1-1.2,1.9-2.1,2.5c-0.9,0.6-2.1,0.9-3.4,0.9C30,14.8,29,14.5,28,14
					c-1-0.6-1.7-1.4-2.2-2.4C25.2,10.5,25,9.3,25,8s0.3-2.6,0.8-3.6S27.1,2.5,28,2s2-0.8,3.2-0.8c1.3,0,2.5,0.3,3.4,0.9
					s1.6,1.4,2.1,2.5l0,0L38,3.8c-0.2-0.4-0.4-0.8-0.7-1.1C36.9,2.1,36.3,1.6,35.7,1.2L35.7,1.2L35.7,1.2L35.7,1.2z"/>
			</g>
		</g>
	</g>
</g>
</svg>
